name ./resultDataOpenSim/trcMotMarkerGrf/sub09/grf-14-06.mot
datacolumns 19
datarows 25
range 0.98000000 1.07600000
endheader

                time	     ground_force_vx	     ground_force_vy	     ground_force_vz	     ground_force_px	     ground_force_py	     ground_force_pz	   l_ground_force_vx	   l_ground_force_vy	   l_ground_force_vz	   l_ground_force_px	   l_ground_force_py	   l_ground_force_pz	     ground_torque_x	     ground_torque_y	     ground_torque_z	   l_ground_torque_x	   l_ground_torque_y	   l_ground_torque_z	
          0.98000000	          0.00000000	          0.00000000	          0.00000000	          0.00000000	          0.00000000	          0.00000000	         35.51610944	        389.79842983	          7.86863694	          0.15629436	         -0.07500100	          0.03376194	          0.00000000	          0.00000000	          0.00000000	          0.00000000	         -2.54869265	          0.00000000	
          0.98400000	          0.00000000	          0.00000000	          0.00000000	          0.00000000	          0.00000000	          0.00000000	         39.92639138	        398.01257003	          6.69781657	          0.15732234	         -0.07500100	          0.03455688	          0.00000000	          0.00000000	          0.00000000	          0.00000000	         -2.86884798	          0.00000000	
          0.98800000	          0.00000000	          0.00000000	          0.00000000	          0.00000000	          0.00000000	          0.00000000	         44.16453652	        407.10948725	          5.49418285	          0.15842178	         -0.07500100	          0.03531842	          0.00000000	          0.00000000	          0.00000000	          0.00000000	         -3.18879945	          0.00000000	
          0.99200000	          0.00000000	          0.00000000	          0.00000000	          0.00000000	          0.00000000	          0.00000000	         48.26025124	        417.28848519	          4.27104551	          0.15948791	         -0.07500100	          0.03601237	          0.00000000	          0.00000000	          0.00000000	          0.00000000	         -3.50141357	          0.00000000	
          0.99600000	          0.00000000	          0.00000000	          0.00000000	          0.00000000	          0.00000000	          0.00000000	         52.27367156	        428.70109442	          3.04431355	          0.16044896	         -0.07500100	          0.03663064	          0.00000000	          0.00000000	          0.00000000	          0.00000000	         -3.80053482	          0.00000000	
          1.00000000	          0.00000000	          0.00000000	          0.00000000	          0.00000000	          0.00000000	          0.00000000	         56.25079131	        441.41544461	          1.85999388	          0.16128887	         -0.07500100	          0.03718763	          0.00000000	          0.00000000	          0.00000000	          0.00000000	         -4.08087943	          0.00000000	
          1.00400000	          0.00000000	          0.00000000	          0.00000000	          0.00000000	          0.00000000	          0.00000000	         60.19388746	        455.38940112	          0.78141617	          0.16202516	         -0.07500100	          0.03770425	          0.00000000	          0.00000000	          0.00000000	          0.00000000	         -4.33796280	          0.00000000	
          1.00800000	          0.00000000	          0.00000000	          0.00000000	          0.00000000	          0.00000000	          0.00000000	         64.07373367	        470.48252295	         -0.14541404	          0.16269666	         -0.07500100	          0.03819099	          0.00000000	          0.00000000	          0.00000000	          0.00000000	         -4.56815276	          0.00000000	
          1.01200000	          0.00000000	          0.00000000	          0.00000000	          0.00000000	          0.00000000	          0.00000000	         67.87922514	        486.50008521	         -0.92222130	          0.16326947	         -0.07500100	          0.03862052	          0.00000000	          0.00000000	          0.00000000	          0.00000000	         -4.76875744	          0.00000000	
          1.01600000	          0.00000000	          0.00000000	          0.00000000	          0.00000000	          0.00000000	          0.00000000	         71.66112017	        503.21061203	         -1.59245242	          0.16367709	         -0.07500100	          0.03896069	          0.00000000	          0.00000000	          0.00000000	          0.00000000	         -4.93804976	          0.00000000	
          1.02000000	          0.00000000	          0.00000000	          0.00000000	          0.00000000	          0.00000000	          0.00000000	         75.52482566	        520.34246166	         -2.20269922	          0.16392896	         -0.07500100	          0.03922181	          0.00000000	          0.00000000	          0.00000000	          0.00000000	         -5.07525202	          0.00000000	
          1.02400000	          0.00000000	          0.00000000	          0.00000000	          0.00000000	          0.00000000	          0.00000000	         79.58331092	        537.59182607	         -2.77216440	          0.16413514	         -0.07500100	          0.03945221	          0.00000000	          0.00000000	          0.00000000	          0.00000000	         -5.18060213	          0.00000000	
          1.02800000	          0.00000000	          0.00000000	          0.00000000	          0.00000000	          0.00000000	          0.00000000	         83.91010751	        554.66380800	         -3.29136809	          0.16437883	         -0.07500100	          0.03970157	          0.00000000	          0.00000000	          0.00000000	          0.00000000	         -5.25556697	          0.00000000	
          1.03200000	          0.00000000	          0.00000000	          0.00000000	          0.00000000	          0.00000000	          0.00000000	         88.51507135	        571.32783153	         -3.74162747	          0.16466209	         -0.07500100	          0.03999016	          0.00000000	          0.00000000	          0.00000000	          0.00000000	         -5.30305761	          0.00000000	
          1.03600000	          0.00000000	          0.00000000	          0.00000000	          0.00000000	          0.00000000	          0.00000000	         93.35824871	        587.41094755	         -4.11777524	          0.16495885	         -0.07500100	          0.04031163	          0.00000000	          0.00000000	          0.00000000	          0.00000000	         -5.32732708	          0.00000000	
          1.04000000	          0.00000000	          0.00000000	          0.00000000	          0.00000000	          0.00000000	          0.00000000	         98.39469472	        602.74008898	         -4.43676127	          0.16526709	         -0.07500100	          0.04065760	          0.00000000	          0.00000000	          0.00000000	          0.00000000	         -5.33331801	          0.00000000	
          1.04400000	          0.00000000	          0.00000000	          0.00000000	          0.00000000	          0.00000000	          0.00000000	        103.60061252	        617.12381019	         -4.72272418	          0.16560884	         -0.07500100	          0.04102473	          0.00000000	          0.00000000	          0.00000000	          0.00000000	         -5.32555778	          0.00000000	
          1.04800000	          0.00000000	          0.00000000	          0.00000000	          0.00000000	          0.00000000	          0.00000000	        108.95322007	        630.38393280	         -4.98002069	          0.16598558	         -0.07500100	          0.04139779	          0.00000000	          0.00000000	          0.00000000	          0.00000000	         -5.30703810	          0.00000000	
          1.05200000	          0.00000000	          0.00000000	          0.00000000	          0.00000000	          0.00000000	          0.00000000	        114.40599698	        642.39743483	         -5.18466542	          0.16636133	         -0.07500100	          0.04174726	          0.00000000	          0.00000000	          0.00000000	          0.00000000	         -5.27861949	          0.00000000	
          1.05600000	          0.00000000	          0.00000000	          0.00000000	          0.00000000	          0.00000000	          0.00000000	        119.90150350	        653.12797917	         -5.30881880	          0.16669964	         -0.07500100	          0.04205334	          0.00000000	          0.00000000	          0.00000000	          0.00000000	         -5.23926462	          0.00000000	
          1.06000000	          0.00000000	          0.00000000	          0.00000000	          0.00000000	          0.00000000	          0.00000000	        125.39785863	        662.61386107	         -5.35435016	          0.16699223	         -0.07500100	          0.04231668	          0.00000000	          0.00000000	          0.00000000	          0.00000000	         -5.18698035	          0.00000000	
          1.06400000	          0.00000000	          0.00000000	          0.00000000	          0.00000000	          0.00000000	          0.00000000	        130.86570662	        670.90609936	         -5.36255903	          0.16724432	         -0.07500100	          0.04254551	          0.00000000	          0.00000000	          0.00000000	          0.00000000	         -5.12003803	          0.00000000	
          1.06800000	          0.00000000	          0.00000000	          0.00000000	          0.00000000	          0.00000000	          0.00000000	        136.26469956	        678.01291800	         -5.39594246	          0.16746397	         -0.07500100	          0.04275087	          0.00000000	          0.00000000	          0.00000000	          0.00000000	         -5.03799163	          0.00000000	
          1.07200000	          0.00000000	          0.00000000	          0.00000000	          0.00000000	          0.00000000	          0.00000000	        141.53713316	        683.88878286	         -5.51218316	          0.16767338	         -0.07500100	          0.04295017	          0.00000000	          0.00000000	          0.00000000	          0.00000000	         -4.94216212	          0.00000000	
          1.07600000	          0.00000000	          0.00000000	          0.00000000	          0.00000000	          0.00000000	          0.00000000	        146.62607635	        688.45452797	         -5.75026399	          0.16790182	         -0.07500100	          0.04315914	          0.00000000	          0.00000000	          0.00000000	          0.00000000	         -4.83549099	          0.00000000	
